<?xml version="1.0" encoding="iso-8859-1"?>
<!-- Generator: Adobe Illustrator 16.0.0, SVG Export Plug-In . SVG Version: 6.00 Build 0)  -->
<!DOCTYPE svg PUBLIC "-//W3C//DTD SVG 1.1//EN" "http://www.w3.org/Graphics/SVG/1.1/DTD/svg11.dtd">
<svg version="1.1" id="Capa_1" xmlns="http://www.w3.org/2000/svg" xmlns:xlink="http://www.w3.org/1999/xlink" x="0px" y="0px"
	 width="336.22px" height="336.22px" viewBox="0 0 336.22 336.22" style="enable-background:new 0 0 336.22 336.22;"
	 xml:space="preserve">
<g>
	<g>
		<path d="M42.665,287.142c0,5.688,5.456,11.466,12.188,12.921l167.856,36.157v-22.98L42.665,276.851
			C42.665,276.851,42.665,281.454,42.665,287.142z"/>
		<path d="M328.673,112.435V98.411L225.741,312.595v23.625l97.476-200.102C326.219,129.926,328.673,119.318,328.673,112.435z"/>
		<path d="M204.174,284.219L51.251,251.374l-9.417,18.127l180.035,37.028L325.933,92.663l-12.379-1.358L221.905,275.67
			C218.849,281.838,210.896,285.668,204.174,284.219z"/>
		<path d="M19.849,209.292l158.519,34.307c1.382,0.298,2.812,0.443,4.269,0.443h0.006c8.396,0,16.757-5.078,20.332-12.354
			l96.592-197.212c2.369-4.82,2.394-9.938,0.079-14.047c-2.32-4.11-6.716-6.735-12.068-7.201L138.125,0.081
			c-9.194-0.822-20,4.752-24.697,12.647L9.984,186.652c-2.719,4.561-3.185,9.676-1.291,14.029
			C10.59,205.029,14.655,208.159,19.849,209.292z M20.705,193.027L124.147,19.106c2.137-3.599,7.688-6.628,12.121-6.628
			c0.262,0,0.511,0.006,0.761,0.031l149.44,13.131c1.303,0.119,2.101,0.536,2.302,0.91c0.207,0.375,0.164,1.261-0.408,2.433
			l-96.592,197.213c-1.735,3.538-6.942,6.064-10.766,5.212L22.479,197.102c-1.203-0.263-2.089-0.78-2.356-1.407
			C19.855,195.086,20.08,194.087,20.705,193.027z"/>
		<path d="M207.633,239.811c-3.581,7.276-11.936,12.361-20.326,12.361h-0.012c-1.449,0-2.887-0.152-4.269-0.451L40.817,220.952
			l-4.202,7.033c-3.522,5.906-0.928,11.85,5.818,13.262l155.614,32.56c6.734,1.406,14.669-2.454,17.707-8.635l95.612-194.683
			c3.045-6.177-0.073-11.478-6.948-11.834l-7.873-0.405L207.633,239.811z"/>
	</g>
</g>
<g>
</g>
<g>
</g>
<g>
</g>
<g>
</g>
<g>
</g>
<g>
</g>
<g>
</g>
<g>
</g>
<g>
</g>
<g>
</g>
<g>
</g>
<g>
</g>
<g>
</g>
<g>
</g>
<g>
</g>
</svg>
