<?xml version="1.0" encoding="iso-8859-1"?>
<!-- Generator: Adobe Illustrator 16.0.0, SVG Export Plug-In . SVG Version: 6.00 Build 0)  -->
<!DOCTYPE svg PUBLIC "-//W3C//DTD SVG 1.1//EN" "http://www.w3.org/Graphics/SVG/1.1/DTD/svg11.dtd">
<svg version="1.1" id="Capa_1" xmlns="http://www.w3.org/2000/svg" xmlns:xlink="http://www.w3.org/1999/xlink" x="0px" y="0px"
	 width="365.167px" height="365.167px" viewBox="0 0 365.167 365.167" style="enable-background:new 0 0 365.167 365.167;"
	 xml:space="preserve">
<g>
	<g>
		<polygon points="365.167,90.848 334.088,37.004 302.99,90.848 328.022,90.848 328.022,266.163 302.99,266.163 334.088,320.004 
			365.167,266.163 340.493,266.163 340.493,90.848 		"/>
		<path d="M292.347,53.329V37.004h-16.319v5.045H154.336v-5.045h-16.319v5.045H16.316v-5.045H0v16.325h5.042v258.516H0v16.318
			h16.316v-5.042h121.701v5.042h16.319v-5.042h121.698v5.042h16.318v-16.318h-5.042V53.329H292.347z M154.153,224.209H88.622
			l31.968-80.654L154.153,224.209z M16.316,53.329v-5.051h116.543L50.973,254.484c-10.83,27.134-24.095,41.382-39.701,43.075V53.329
			H16.316z M97.381,316.886V297.9c-9.956,0-17.128-1.291-21.51-3.886c-4.378-2.594-6.567-7.136-6.567-13.639
			c0-3.855,1.852-10.498,5.569-19.924l5.218-13.342h83.172l7.621,19.711l2.469,6.223c2.463,5.164,3.69,9.329,3.69,12.508
			c0,3.58-1.458,6.539-4.381,8.859c-2.926,2.326-10.428,3.489-22.505,3.489v13.944h-12.139v5.041H97.381z M281.075,297.645
			c-5.285-0.572-10.741-2.521-16.403-6.017c-6.771-4.183-14.334-16.623-22.707-37.338L158.793,48.284h117.234v5.051h5.048V297.645z"
			/>
	</g>
</g>
<g>
</g>
<g>
</g>
<g>
</g>
<g>
</g>
<g>
</g>
<g>
</g>
<g>
</g>
<g>
</g>
<g>
</g>
<g>
</g>
<g>
</g>
<g>
</g>
<g>
</g>
<g>
</g>
<g>
</g>
</svg>
